<svg width="139" height="60" viewBox="0 0 139 60" fill="none" xmlns="http://www.w3.org/2000/svg">
<rect width="139" height="60"/>
<path d="M16.15 38.7281L26.6277 28.2504C24.865 27.5141 23.2641 26.4388 21.9158 25.0856C20.562 23.737 19.4862 22.1356 18.7496 20.3723L8.2719 30.85C7.45449 31.6674 7.04507 32.0768 6.69374 32.5273C6.27921 33.0593 5.92344 33.6345 5.63265 34.2429C5.38757 34.7586 5.20482 35.3083 4.83932 36.4048L2.90982 42.189C2.82101 42.4539 2.80784 42.7382 2.87177 43.0101C2.93571 43.282 3.07422 43.5307 3.27174 43.7283C3.46926 43.9258 3.71795 44.0643 3.98987 44.1282C4.26179 44.1922 4.54615 44.179 4.81099 44.0902L10.5952 42.1607C11.6932 41.7952 12.2414 41.6124 12.7571 41.3673C13.3681 41.0765 13.94 40.7228 14.4727 40.3063C14.9232 39.9549 15.3326 39.5455 16.15 38.7281ZM29.5347 25.3434C30.5793 24.2987 31.1663 22.8818 31.1663 21.4044C31.1663 19.927 30.5793 18.51 29.5347 17.4653C28.49 16.4206 27.073 15.8337 25.5956 15.8337C24.1182 15.8337 22.7013 16.4206 21.6566 17.4653L20.4 18.7219L20.4538 18.8792C21.0729 20.6511 22.0863 22.2593 23.4175 23.5825C24.7802 24.9536 26.4448 25.9869 28.2781 26.6L29.5347 25.3434Z" fill="#FAFAEA"/>
<path d="M51.1922 30.5742H47.5691L47.5496 28.7871H50.7137C51.2475 28.7871 51.7 28.709 52.0711 28.5527C52.4487 28.39 52.7352 28.1589 52.9305 27.8594C53.1258 27.5534 53.2234 27.1855 53.2234 26.7559C53.2234 26.2806 53.1323 25.8932 52.95 25.5938C52.7677 25.2943 52.4878 25.0762 52.1102 24.9395C51.7391 24.8027 51.2638 24.7344 50.6844 24.7344H48.3113V37H45.8602V22.7812H50.6844C51.4656 22.7812 52.1622 22.8561 52.7742 23.0059C53.3927 23.1556 53.9168 23.39 54.3465 23.709C54.7827 24.0215 55.1115 24.4186 55.3328 24.9004C55.5607 25.3822 55.6746 25.9551 55.6746 26.6191C55.6746 27.2051 55.5346 27.7422 55.2547 28.2305C54.9747 28.7122 54.5613 29.1061 54.0145 29.4121C53.4676 29.7181 52.7872 29.9004 51.9734 29.959L51.1922 30.5742ZM51.0848 37H46.7977L47.9012 35.0566H51.0848C51.6382 35.0566 52.1004 34.9655 52.4715 34.7832C52.8426 34.5944 53.1193 34.3372 53.3016 34.0117C53.4904 33.6797 53.5848 33.2923 53.5848 32.8496C53.5848 32.3874 53.5034 31.987 53.3406 31.6484C53.1779 31.3034 52.9207 31.0397 52.5691 30.8574C52.2176 30.6686 51.7586 30.5742 51.1922 30.5742H48.4383L48.4578 28.7871H52.0418L52.5984 29.4609C53.3797 29.487 54.021 29.6595 54.5223 29.9785C55.0301 30.2975 55.4077 30.7109 55.6551 31.2188C55.9025 31.7266 56.0262 32.2734 56.0262 32.8594C56.0262 33.7643 55.8276 34.5228 55.4305 35.1348C55.0398 35.7467 54.4767 36.2122 53.741 36.5312C53.0053 36.8438 52.1199 37 51.0848 37ZM60.882 22V37H58.5188V22H60.882ZM63.1109 31.834V31.6094C63.1109 30.8477 63.2216 30.1413 63.443 29.4902C63.6643 28.8327 63.9833 28.263 64.4 27.7812C64.8232 27.293 65.3375 26.9154 65.943 26.6484C66.5549 26.375 67.2451 26.2383 68.0133 26.2383C68.788 26.2383 69.4781 26.375 70.0836 26.6484C70.6956 26.9154 71.2132 27.293 71.6363 27.7812C72.0595 28.263 72.3818 28.8327 72.6031 29.4902C72.8245 30.1413 72.9352 30.8477 72.9352 31.6094V31.834C72.9352 32.5957 72.8245 33.3021 72.6031 33.9531C72.3818 34.6042 72.0595 35.1738 71.6363 35.6621C71.2132 36.1439 70.6988 36.5215 70.0934 36.7949C69.4879 37.0618 68.801 37.1953 68.0328 37.1953C67.2581 37.1953 66.5647 37.0618 65.9527 36.7949C65.3473 36.5215 64.8329 36.1439 64.4098 35.6621C63.9866 35.1738 63.6643 34.6042 63.443 33.9531C63.2216 33.3021 63.1109 32.5957 63.1109 31.834ZM65.4645 31.6094V31.834C65.4645 32.3092 65.5133 32.7585 65.6109 33.1816C65.7086 33.6048 65.8616 33.9759 66.0699 34.2949C66.2783 34.6139 66.5452 34.8646 66.8707 35.0469C67.1962 35.2292 67.5836 35.3203 68.0328 35.3203C68.469 35.3203 68.8466 35.2292 69.1656 35.0469C69.4911 34.8646 69.7581 34.6139 69.9664 34.2949C70.1747 33.9759 70.3277 33.6048 70.4254 33.1816C70.5296 32.7585 70.5816 32.3092 70.5816 31.834V31.6094C70.5816 31.1406 70.5296 30.6979 70.4254 30.2812C70.3277 29.8581 70.1715 29.4837 69.9566 29.1582C69.7483 28.8327 69.4814 28.5788 69.1559 28.3965C68.8369 28.2077 68.456 28.1133 68.0133 28.1133C67.5706 28.1133 67.1865 28.2077 66.8609 28.3965C66.5419 28.5788 66.2783 28.8327 66.0699 29.1582C65.8616 29.4837 65.7086 29.8581 65.6109 30.2812C65.5133 30.6979 65.4645 31.1406 65.4645 31.6094ZM81.7754 26.4336H83.9141V36.707C83.9141 37.6576 83.7122 38.4648 83.3086 39.1289C82.9049 39.793 82.3418 40.2975 81.6191 40.6426C80.8965 40.9941 80.0599 41.1699 79.1094 41.1699C78.7057 41.1699 78.2565 41.1113 77.7617 40.9941C77.2734 40.877 76.7982 40.6882 76.3359 40.4277C75.8802 40.1738 75.4993 39.8385 75.1934 39.4219L76.2969 38.0352C76.6745 38.4844 77.0911 38.8132 77.5469 39.0215C78.0026 39.2298 78.4811 39.334 78.9824 39.334C79.5228 39.334 79.9818 39.2331 80.3594 39.0312C80.7435 38.8359 81.0397 38.5462 81.248 38.1621C81.4564 37.778 81.5605 37.3092 81.5605 36.7559V28.8262L81.7754 26.4336ZM74.5977 31.834V31.6289C74.5977 30.8281 74.6953 30.099 74.8906 29.4414C75.0859 28.7773 75.3659 28.2077 75.7305 27.7324C76.0951 27.2507 76.5378 26.8828 77.0586 26.6289C77.5794 26.3685 78.1686 26.2383 78.8262 26.2383C79.5098 26.2383 80.0924 26.362 80.5742 26.6094C81.0625 26.8568 81.4694 27.2116 81.7949 27.6738C82.1204 28.1296 82.3743 28.6764 82.5566 29.3145C82.7454 29.946 82.8854 30.6491 82.9766 31.4238V32.0781C82.8919 32.8333 82.7487 33.5234 82.5469 34.1484C82.3451 34.7734 82.0781 35.3138 81.7461 35.7695C81.4141 36.2253 81.0039 36.5768 80.5156 36.8242C80.0339 37.0716 79.4642 37.1953 78.8066 37.1953C78.1621 37.1953 77.5794 37.0618 77.0586 36.7949C76.5443 36.528 76.1016 36.1536 75.7305 35.6719C75.3659 35.1901 75.0859 34.6237 74.8906 33.9727C74.6953 33.3151 74.5977 32.6022 74.5977 31.834ZM76.9512 31.6289V31.834C76.9512 32.3158 76.9967 32.765 77.0879 33.1816C77.1855 33.5983 77.332 33.9661 77.5273 34.2852C77.7292 34.5977 77.9831 34.8451 78.2891 35.0273C78.6016 35.2031 78.9694 35.291 79.3926 35.291C79.946 35.291 80.3984 35.1738 80.75 34.9395C81.1081 34.7051 81.3815 34.3893 81.5703 33.9922C81.7656 33.5885 81.9023 33.1393 81.9805 32.6445V30.877C81.9414 30.4928 81.86 30.1348 81.7363 29.8027C81.6191 29.4707 81.4596 29.181 81.2578 28.9336C81.056 28.6797 80.8021 28.4844 80.4961 28.3477C80.1901 28.2044 79.8288 28.1328 79.4121 28.1328C78.9889 28.1328 78.6211 28.224 78.3086 28.4062C77.9961 28.5885 77.7389 28.8392 77.5371 29.1582C77.3418 29.4772 77.1953 29.8483 77.0977 30.2715C77 30.6947 76.9512 31.1471 76.9512 31.6289ZM93.223 26.4336H95.3617V36.707C95.3617 37.6576 95.1599 38.4648 94.7563 39.1289C94.3526 39.793 93.7895 40.2975 93.0668 40.6426C92.3441 40.9941 91.5076 41.1699 90.557 41.1699C90.1534 41.1699 89.7042 41.1113 89.2094 40.9941C88.7211 40.877 88.2458 40.6882 87.7836 40.4277C87.3279 40.1738 86.947 39.8385 86.641 39.4219L87.7445 38.0352C88.1221 38.4844 88.5388 38.8132 88.9945 39.0215C89.4503 39.2298 89.9288 39.334 90.4301 39.334C90.9704 39.334 91.4294 39.2331 91.807 39.0312C92.1911 38.8359 92.4874 38.5462 92.6957 38.1621C92.904 37.778 93.0082 37.3092 93.0082 36.7559V28.8262L93.223 26.4336ZM86.0453 31.834V31.6289C86.0453 30.8281 86.143 30.099 86.3383 29.4414C86.5336 28.7773 86.8135 28.2077 87.1781 27.7324C87.5427 27.2507 87.9854 26.8828 88.5063 26.6289C89.0271 26.3685 89.6163 26.2383 90.2738 26.2383C90.9574 26.2383 91.5401 26.362 92.0219 26.6094C92.5102 26.8568 92.9171 27.2116 93.2426 27.6738C93.5681 28.1296 93.822 28.6764 94.0043 29.3145C94.1931 29.946 94.3331 30.6491 94.4242 31.4238V32.0781C94.3396 32.8333 94.1964 33.5234 93.9945 34.1484C93.7927 34.7734 93.5258 35.3138 93.1938 35.7695C92.8617 36.2253 92.4516 36.5768 91.9633 36.8242C91.4815 37.0716 90.9119 37.1953 90.2543 37.1953C89.6098 37.1953 89.0271 37.0618 88.5063 36.7949C87.9919 36.528 87.5492 36.1536 87.1781 35.6719C86.8135 35.1901 86.5336 34.6237 86.3383 33.9727C86.143 33.3151 86.0453 32.6022 86.0453 31.834ZM88.3988 31.6289V31.834C88.3988 32.3158 88.4444 32.765 88.5355 33.1816C88.6332 33.5983 88.7797 33.9661 88.975 34.2852C89.1768 34.5977 89.4307 34.8451 89.7367 35.0273C90.0492 35.2031 90.4171 35.291 90.8402 35.291C91.3936 35.291 91.8461 35.1738 92.1977 34.9395C92.5557 34.7051 92.8292 34.3893 93.018 33.9922C93.2133 33.5885 93.35 33.1393 93.4281 32.6445V30.877C93.3891 30.4928 93.3077 30.1348 93.184 29.8027C93.0668 29.4707 92.9073 29.181 92.7055 28.9336C92.5036 28.6797 92.2497 28.4844 91.9438 28.3477C91.6378 28.2044 91.2764 28.1328 90.8598 28.1328C90.4366 28.1328 90.0688 28.224 89.7563 28.4062C89.4438 28.5885 89.1866 28.8392 88.9848 29.1582C88.7895 29.4772 88.643 29.8483 88.5453 30.2715C88.4477 30.6947 88.3988 31.1471 88.3988 31.6289ZM102.561 37.1953C101.78 37.1953 101.074 37.0684 100.442 36.8145C99.8172 36.554 99.2833 36.1927 98.8406 35.7305C98.4044 35.2682 98.0691 34.7246 97.8348 34.0996C97.6004 33.4746 97.4832 32.8008 97.4832 32.0781V31.6875C97.4832 30.8607 97.6036 30.112 97.8445 29.4414C98.0854 28.7708 98.4207 28.1979 98.8504 27.7227C99.2801 27.2409 99.7879 26.873 100.374 26.6191C100.96 26.3652 101.595 26.2383 102.278 26.2383C103.033 26.2383 103.694 26.3652 104.261 26.6191C104.827 26.873 105.296 27.2311 105.667 27.6934C106.044 28.1491 106.324 28.6927 106.507 29.3242C106.695 29.9557 106.79 30.6523 106.79 31.4141V32.4199H98.6258V30.7305H104.466V30.5449C104.453 30.1217 104.368 29.7246 104.212 29.3535C104.062 28.9824 103.831 28.6829 103.518 28.4551C103.206 28.2272 102.789 28.1133 102.268 28.1133C101.878 28.1133 101.529 28.1979 101.223 28.3672C100.924 28.5299 100.673 28.7676 100.471 29.0801C100.27 29.3926 100.113 29.7702 100.003 30.2129C99.8986 30.6491 99.8465 31.1406 99.8465 31.6875V32.0781C99.8465 32.5404 99.9083 32.9701 100.032 33.3672C100.162 33.7578 100.351 34.0996 100.598 34.3926C100.846 34.6855 101.145 34.9167 101.497 35.0859C101.848 35.2487 102.249 35.3301 102.698 35.3301C103.264 35.3301 103.769 35.2161 104.212 34.9883C104.654 34.7604 105.039 34.4382 105.364 34.0215L106.604 35.2227C106.376 35.5547 106.08 35.8737 105.716 36.1797C105.351 36.4792 104.905 36.7233 104.378 36.9121C103.857 37.1009 103.251 37.1953 102.561 37.1953ZM111.089 28.4453V37H108.736V26.4336H110.982L111.089 28.4453ZM114.321 26.3652L114.302 28.5527C114.159 28.5267 114.002 28.5072 113.833 28.4941C113.67 28.4811 113.508 28.4746 113.345 28.4746C112.941 28.4746 112.586 28.5332 112.28 28.6504C111.974 28.7611 111.717 28.9238 111.509 29.1387C111.307 29.347 111.151 29.6009 111.04 29.9004C110.93 30.1999 110.864 30.5352 110.845 30.9062L110.308 30.9453C110.308 30.2812 110.373 29.666 110.503 29.0996C110.633 28.5332 110.829 28.0352 111.089 27.6055C111.356 27.1758 111.688 26.8405 112.085 26.5996C112.489 26.3587 112.954 26.2383 113.482 26.2383C113.625 26.2383 113.778 26.2513 113.941 26.2773C114.11 26.3034 114.237 26.3327 114.321 26.3652Z" fill="#FAFAEA"/>
</svg>
